<svg class="icon" viewBox="0 0 1024 1024" xmlns="http://www.w3.org/2000/svg" width="200" height="200"><defs><style>@font-face{font-family:rbicon;src:url(chrome-extension://dipiagiiohfljcicegpgffpbnjmgjcnf/fonts/rbicon.woff2) format(&quot;woff2&quot;);font-weight:400;font-style:normal}</style></defs><path d="M165.174 632.025a72.487 72.487 0 0172.394 72.394 72.487 72.487 0 01-72.394 72.425 72.487 72.487 0 01-72.393-72.425 72.487 72.487 0 0172.393-72.394m-31.03 202.938v153.91a31.03 31.03 0 0062.06 0v-153.91C255.38 820.845 299.63 767.845 299.63 704.42c0-63.395-44.25-116.364-103.424-130.483V55.42a31.03 31.03 0 10-62.061 0v518.516C75 588.024 30.72 641.024 30.72 704.42c0 63.426 44.28 116.426 103.424 130.513m640.31-130.482a72.487 72.487 0 0172.394-72.394 72.487 72.487 0 0172.425 72.394 72.487 72.487 0 01-72.425 72.394 72.487 72.487 0 01-72.394-72.394zm103.424 130.513c59.175-14.118 103.455-67.087 103.455-130.513s-44.28-116.395-103.455-130.514V55.39a31.03 31.03 0 10-62.06 0v518.516c-59.144 14.15-103.424 67.119-103.424 130.545s44.28 116.364 103.424 130.513v153.91a31.03 31.03 0 0062.06 0v-153.91zm-443.64-495.12a72.487 72.487 0 0172.394-72.393 72.487 72.487 0 0172.424 72.394 72.487 72.487 0 01-72.424 72.394 72.487 72.487 0 01-72.394-72.394zm103.424 130.514c59.175-14.118 103.455-67.087 103.455-130.513s-44.28-116.395-103.455-130.514V55.39a31.03 31.03 0 10-62.06 0V209.3c-59.144 14.15-103.425 67.118-103.425 130.544s44.28 116.364 103.424 130.513v518.517a31.03 31.03 0 0062.061 0V470.357z"/></svg>