<svg class="icon" viewBox="0 0 1024 1024" xmlns="http://www.w3.org/2000/svg" width="200" height="200"><defs><style>@font-face{font-family:rbicon;src:url(chrome-extension://dipiagiiohfljcicegpgffpbnjmgjcnf/fonts/rbicon.woff2) format(&quot;woff2&quot;);font-weight:400;font-style:normal}</style></defs><path d="M478.73 302.56l315.45-74.01v-52.13l-315.45 74.24v51.9zM322.58 662.23c34.29 0 66.57 9.03 92.52 24.6V221.32l.44-1.11v-.46l.23-.44v-1.13l.23-.46.23-.44v-.9h.21l.23-1.14v-.46c.67-1.57 1.59-3.37 2.5-4.73v-.44l.44-.23v-.46l.46-.21.21-.92.46-.44.9-.9v-.9h.46l.21-.46.46-.44.44-.23v-.23l.46-.44 1.8-1.36v-.44h.23l.67-.46.23-.44h.23l1.34-1.36.46-.23.44-.23v-.21l.46-.23 1.34-.67v-.23l1.13-.67h.23c1.36-.69 2.7-1.14 4.3-1.6 1.34-.9 2.91-1.34 4.74-1.34l376.82-88.68c16.71-3.84 32.95 5.87 37.92 21.65v.46c1.34 3.37 1.8 6.77 1.8 10.6v566.36c-.46 36.35-18.95 69.06-48.73 92.08-27.98 22.11-65.9 35.19-107.42 35.19-41.52 0-79.65-13.08-107.63-34.75-30.02-23.69-48.52-56.63-48.52-93.86 0-37.02 18.51-69.97 48.52-93.42 27.98-21.88 65.88-35.21 107.63-35.21 34.31 0 66.34 9.27 92.52 25.04V267.57l-315.45 74.24V792.2c-.46 36.12-19.18 68.61-48.75 92.08-27.98 21.65-65.88 34.98-107.4 34.98-41.52 0-79.65-13.33-107.42-34.98-30.22-23.92-48.96-56.63-48.96-93.88 0-36.56 18.74-69.94 48.96-93.42 27.77-21.65 65.89-34.75 107.42-34.75zm68.14 84.84c-16.71-13.31-41.06-21.65-68.14-21.65s-51.46 8.35-68.6 21.65c-14.44 11.74-23.91 27.08-23.91 43.32 0 16.71 9.47 32.05 23.91 43.79 17.15 13.31 41.52 21.21 68.6 21.21s51.43-7.9 68.14-21.21c15.11-11.74 24.38-27.08 24.38-43.79-.01-16.24-9.27-31.58-24.38-43.32zm379.54-87.31c-17.14-13.31-41.52-21.45-68.6-21.45s-51.43 8.14-68.6 21.45c-14.44 11.51-23.91 27.08-23.91 43.56 0 16.24 9.47 31.81 23.91 43.32 17.17 13.54 41.52 21.65 68.6 21.65s51.46-8.11 68.6-21.65c14.44-11.07 23.48-26.64 23.91-42.42v-1.57c-.23-16.27-9.47-31.38-23.91-42.65v-.24z"/></svg>