<svg class="icon" viewBox="0 0 1024 1024" xmlns="http://www.w3.org/2000/svg" width="32" height="32"><defs><style>@font-face{font-family:rbicon;src:url(chrome-extension://dipiagiiohfljcicegpgffpbnjmgjcnf/fonts/rbicon.woff2) format(&quot;woff2&quot;);font-weight:400;font-style:normal}</style></defs><path d="M266.418 400.877l189.369-150.28v522.816l-189.37-150.29H92.162V400.877h174.257zM51.208 324.08c-19.8 0-35.842 16.041-35.842 35.843v304.16c0 19.79 16.041 35.844 35.843 35.844h188.444c78.276 62.116 156.55 124.231 234.823 186.36 23.486 18.633 58.118 1.907 58.118-28.076V165.796c0-29.992-34.632-46.72-58.118-28.074-78.273 62.116-156.547 124.243-234.823 186.358H51.21zm545.718 6.302c-13.595-16.265-11.433-40.492 4.832-54.09 16.28-13.598 40.494-11.434 54.09 4.844 47.638 56.993 95.28 113.988 142.918 170.992 47.639-57.004 95.28-113.999 142.93-170.992 13.595-16.278 37.812-18.442 54.08-4.845 16.273 13.598 18.437 37.824 4.842 54.091-50.598 60.543-101.206 121.084-151.802 181.624 50.596 60.541 101.204 121.08 151.802 181.612 13.595 16.277 11.431 40.493-4.843 54.09-16.268 13.609-40.484 11.443-54.08-4.835-47.65-56.993-95.29-113.997-142.93-170.99L655.85 742.872c-13.597 16.278-37.813 18.444-54.09 4.836-16.266-13.598-18.428-37.815-4.833-54.091 50.6-60.532 101.192-121.07 151.8-181.612-50.606-60.542-101.2-121.083-151.8-181.624z"/></svg>