<svg class="icon" viewBox="0 0 1024 1024" xmlns="http://www.w3.org/2000/svg" width="32" height="32"><defs><style>@font-face{font-family:rbicon;src:url(chrome-extension://dipiagiiohfljcicegpgffpbnjmgjcnf/fonts/rbicon.woff2) format(&quot;woff2&quot;);font-weight:400;font-style:normal}</style></defs><path d="M128 432c0-35.2 25.104-49.888 55.776-32.624l144.432 81.248c30.672 17.264 30.672 45.504 0 62.752l-144.432 81.248C153.104 641.888 128 627.2 128 592V432zm768 256a32 32 0 01-32 32H480a32 32 0 110-64h384a32 32 0 0132 32zm0-528a32 32 0 01-32 32H160a32 32 0 110-64h704a32 32 0 0132 32zm0 704a32 32 0 01-32 32H160a32 32 0 110-64h704a32 32 0 0132 32zm0-528a32 32 0 01-32 32H480a32 32 0 110-64h384a32 32 0 0132 32zm0 176a32 32 0 01-32 32H480a32 32 0 110-64h384a32 32 0 0132 32z"/></svg>