<svg class="icon" viewBox="0 0 1024 1024" xmlns="http://www.w3.org/2000/svg" width="32" height="32"><defs><style>@font-face{font-family:rbicon;src:url(chrome-extension://dipiagiiohfljcicegpgffpbnjmgjcnf/fonts/rbicon.woff2) format(&quot;woff2&quot;);font-weight:400;font-style:normal}</style></defs><path d="M701.78 343.629c-10.378-21.24-37.176-28.336-56.709-15.026-19.534 13.314-22.731 40.848-6.766 58.28 49.241 76.142 49.241 174.092 0 250.236-15.965 17.432-12.768 44.968 6.766 58.28 19.533 13.311 46.331 6.211 56.71-15.023M888.625 858.76c161.823-202.863 161.823-490.66 0-693.518-12.539-18.53-38.182-22.504-55.743-8.638-17.56 13.863-19.648 39.726-4.536 56.226 137.182 175.857 137.182 422.483 0 598.344-15.112 16.5-13.024 42.363 4.536 56.223 17.563 13.863 43.204 9.89 55.743-8.637zM239.651 324.077c78.275-62.116 156.545-124.239 234.82-186.357 23.487-18.643 58.118-1.912 58.118 28.074v692.413c0 29.989-34.63 46.713-58.119 28.073L239.651 699.92H51.201c-19.794 0-35.838-16.046-35.838-35.84V359.919c0-19.792 16.044-35.84 35.839-35.84l188.45-.002zm-147.488 76.8v222.246h174.262l189.367 150.284V250.591L266.425 400.879H92.163zm603.376 288.66c75.328-106.375 75.328-248.701 0-355.075"/></svg>